<svg width="244" height="60" viewBox="0 0 244 60" fill="none" xmlns="http://www.w3.org/2000/svg">
<path d="M16.4 30C16.4 27.2533 17.0133 24.8 18.24 22.64C19.4933 20.4533 21.1867 18.76 23.32 17.56C25.48 16.3333 27.8933 15.72 30.56 15.72C33.68 15.72 36.4133 16.52 38.76 18.12C41.1067 19.72 42.7467 21.9333 43.68 24.76H37.24C36.6 23.4267 35.6933 22.4267 34.52 21.76C33.3733 21.0933 32.04 20.76 30.52 20.76C28.8933 20.76 27.44 21.1467 26.16 21.92C24.9067 22.6667 23.92 23.7333 23.2 25.12C22.5067 26.5067 22.16 28.1333 22.16 30C22.16 31.84 22.5067 33.4667 23.2 34.88C23.92 36.2667 24.9067 37.3467 26.16 38.12C27.44 38.8667 28.8933 39.24 30.52 39.24C32.04 39.24 33.3733 38.9067 34.52 38.24C35.6933 37.5467 36.6 36.5333 37.24 35.2H43.68C42.7467 38.0533 41.1067 40.28 38.76 41.88C36.44 43.4533 33.7067 44.24 30.56 44.24C27.8933 44.24 25.48 43.64 23.32 42.44C21.1867 41.2133 19.4933 39.52 18.24 37.36C17.0133 35.2 16.4 32.7467 16.4 30ZM69.0631 32.44C69.0631 33.24 69.0098 33.96 68.9031 34.6H52.7031C52.8365 36.2 53.3965 37.4533 54.3831 38.36C55.3698 39.2667 56.5831 39.72 58.0231 39.72C60.1031 39.72 61.5831 38.8267 62.4631 37.04H68.5031C67.8631 39.1733 66.6365 40.9333 64.8231 42.32C63.0098 43.68 60.7831 44.36 58.1431 44.36C56.0098 44.36 54.0898 43.8933 52.3831 42.96C50.7031 42 49.3831 40.6533 48.4231 38.92C47.4898 37.1867 47.0231 35.1867 47.0231 32.92C47.0231 30.6267 47.4898 28.6133 48.4231 26.88C49.3565 25.1467 50.6631 23.8133 52.3431 22.88C54.0231 21.9467 55.9565 21.48 58.1431 21.48C60.2498 21.48 62.1298 21.9333 63.7831 22.84C65.4631 23.7467 66.7565 25.04 67.6631 26.72C68.5965 28.3733 69.0631 30.28 69.0631 32.44ZM63.2631 30.84C63.2365 29.4 62.7165 28.2533 61.7031 27.4C60.6898 26.52 59.4498 26.08 57.9831 26.08C56.5965 26.08 55.4231 26.5067 54.4631 27.36C53.5298 28.1867 52.9565 29.3467 52.7431 30.84H63.2631ZM78.7506 25.28C79.4706 24.1067 80.404 23.1867 81.5506 22.52C82.724 21.8533 84.0573 21.52 85.5506 21.52V27.4H84.0706C82.3106 27.4 80.9773 27.8133 80.0706 28.64C79.1906 29.4667 78.7506 30.9067 78.7506 32.96V44H73.1506V21.84H78.7506V25.28ZM95.8425 26.44V37.16C95.8425 37.9067 96.0158 38.4533 96.3625 38.8C96.7358 39.12 97.3492 39.28 98.2025 39.28H100.803V44H97.2825C92.5625 44 90.2025 41.7067 90.2025 37.12V26.44H87.5625V21.84H90.2025V16.36H95.8425V21.84H100.803V26.44H95.8425ZM107.67 19.2C106.684 19.2 105.857 18.8933 105.19 18.28C104.55 17.64 104.23 16.8533 104.23 15.92C104.23 14.9867 104.55 14.2133 105.19 13.6C105.857 12.96 106.684 12.64 107.67 12.64C108.657 12.64 109.47 12.96 110.11 13.6C110.777 14.2133 111.11 14.9867 111.11 15.92C111.11 16.8533 110.777 17.64 110.11 18.28C109.47 18.8933 108.657 19.2 107.67 19.2ZM110.43 21.84V44H104.83V21.84H110.43ZM126.123 26.44H122.243V44H116.563V26.44H114.043V21.84H116.563V20.72C116.563 18 117.336 16 118.883 14.72C120.43 13.44 122.763 12.84 125.883 12.92V17.64C124.523 17.6133 123.576 17.84 123.043 18.32C122.51 18.8 122.243 19.6667 122.243 20.92V21.84H126.123V26.44ZM132.592 19.2C131.606 19.2 130.779 18.8933 130.112 18.28C129.472 17.64 129.152 16.8533 129.152 15.92C129.152 14.9867 129.472 14.2133 130.112 13.6C130.779 12.96 131.606 12.64 132.592 12.64C133.579 12.64 134.392 12.96 135.032 13.6C135.699 14.2133 136.032 14.9867 136.032 15.92C136.032 16.8533 135.699 17.64 135.032 18.28C134.392 18.8933 133.579 19.2 132.592 19.2ZM135.352 21.84V44H129.752V21.84H135.352ZM139.445 32.92C139.445 30.6267 139.912 28.6267 140.845 26.92C141.778 25.1867 143.072 23.8533 144.725 22.92C146.378 21.96 148.272 21.48 150.405 21.48C153.152 21.48 155.418 22.1733 157.205 23.56C159.018 24.92 160.232 26.84 160.845 29.32H154.805C154.485 28.36 153.938 27.6133 153.165 27.08C152.418 26.52 151.485 26.24 150.365 26.24C148.765 26.24 147.498 26.8267 146.565 28C145.632 29.1467 145.165 30.7867 145.165 32.92C145.165 35.0267 145.632 36.6667 146.565 37.84C147.498 38.9867 148.765 39.56 150.365 39.56C152.632 39.56 154.112 38.5467 154.805 36.52H160.845C160.232 38.92 159.018 40.8267 157.205 42.24C155.392 43.6533 153.125 44.36 150.405 44.36C148.272 44.36 146.378 43.8933 144.725 42.96C143.072 42 141.778 40.6667 140.845 38.96C139.912 37.2267 139.445 35.2133 139.445 32.92ZM163.507 32.84C163.507 30.6 163.947 28.6133 164.827 26.88C165.734 25.1467 166.948 23.8133 168.468 22.88C170.014 21.9467 171.734 21.48 173.628 21.48C175.281 21.48 176.721 21.8133 177.948 22.48C179.201 23.1467 180.201 23.9867 180.948 25V21.84H186.588V44H180.948V40.76C180.228 41.8 179.228 42.6667 177.948 43.36C176.694 44.0267 175.241 44.36 173.588 44.36C171.721 44.36 170.014 43.88 168.468 42.92C166.948 41.96 165.734 40.6133 164.827 38.88C163.947 37.12 163.507 35.1067 163.507 32.84ZM180.948 32.92C180.948 31.56 180.681 30.4 180.148 29.44C179.614 28.4533 178.894 27.7067 177.988 27.2C177.081 26.6667 176.108 26.4 175.068 26.4C174.028 26.4 173.068 26.6533 172.188 27.16C171.308 27.6667 170.588 28.4133 170.028 29.4C169.494 30.36 169.228 31.5067 169.228 32.84C169.228 34.1733 169.494 35.3467 170.028 36.36C170.588 37.3467 171.308 38.1067 172.188 38.64C173.094 39.1733 174.054 39.44 175.068 39.44C176.108 39.44 177.081 39.1867 177.988 38.68C178.894 38.1467 179.614 37.4 180.148 36.44C180.681 35.4533 180.948 34.28 180.948 32.92ZM198.577 26.44V37.16C198.577 37.9067 198.75 38.4533 199.097 38.8C199.47 39.12 200.084 39.28 200.937 39.28H203.537V44H200.017C195.297 44 192.937 41.7067 192.937 37.12V26.44H190.297V21.84H192.937V16.36H198.577V21.84H203.537V26.44H198.577ZM228.165 32.44C228.165 33.24 228.111 33.96 228.005 34.6H211.805C211.938 36.2 212.498 37.4533 213.485 38.36C214.471 39.2667 215.685 39.72 217.125 39.72C219.205 39.72 220.685 38.8267 221.565 37.04H227.605C226.965 39.1733 225.738 40.9333 223.925 42.32C222.111 43.68 219.885 44.36 217.245 44.36C215.111 44.36 213.191 43.8933 211.485 42.96C209.805 42 208.485 40.6533 207.525 38.92C206.591 37.1867 206.125 35.1867 206.125 32.92C206.125 30.6267 206.591 28.6133 207.525 26.88C208.458 25.1467 209.765 23.8133 211.445 22.88C213.125 21.9467 215.058 21.48 217.245 21.48C219.351 21.48 221.231 21.9333 222.885 22.84C224.565 23.7467 225.858 25.04 226.765 26.72C227.698 28.3733 228.165 30.28 228.165 32.44ZM222.365 30.84C222.338 29.4 221.818 28.2533 220.805 27.4C219.791 26.52 218.551 26.08 217.085 26.08C215.698 26.08 214.525 26.5067 213.565 27.36C212.631 28.1867 212.058 29.3467 211.845 30.84H222.365Z" fill="#8BD19E"/>
<line y1="59.5" x2="244" y2="59.5" stroke="black"/>
</svg>
